<svg width="24" height="24" viewBox="0 0 24 24" fill="none" xmlns="http://www.w3.org/2000/svg">
<path d="M8.89571 22.5591H3.85946C3.74208 22.5591 3.63108 22.504 3.56021 22.4103C3.48933 22.3161 3.46646 22.1946 3.49871 22.0814L3.92246 20.5964C4.10583 19.9593 4.56446 19.4541 5.18021 19.2108C5.48471 19.0915 5.77383 19.0071 6.06071 18.9516C6.65996 18.8369 7.26671 18.8373 7.86446 18.9516C8.15171 19.0071 8.44083 19.0919 8.72508 19.2029C9.19308 19.3855 9.57108 19.7148 9.80846 20.1378C9.91008 20.3181 9.84558 20.5469 9.66483 20.6481C9.48521 20.7494 9.25608 20.686 9.15446 20.5045C9.00183 20.2326 8.75921 20.0211 8.47158 19.909C8.21058 19.807 7.96458 19.735 7.72271 19.6878C7.22621 19.5925 6.70046 19.5921 6.20321 19.6878C5.96133 19.7346 5.71608 19.8063 5.47458 19.9008C5.05908 20.065 4.76283 20.3916 4.64433 20.8026L4.35708 21.8091H8.89608C9.10346 21.8091 9.27108 21.9768 9.27108 22.1841C9.27108 22.3915 9.10346 22.5591 8.89608 22.5591H8.89571Z" fill="#365327"/>
<path d="M6.96153 18.6651C6.05441 18.6651 5.31641 17.9268 5.31641 17.0196C5.31641 16.1125 6.05441 15.3745 6.96153 15.3745C7.86866 15.3745 8.60666 16.1125 8.60666 17.0196C8.60666 17.9268 7.86866 18.6651 6.96153 18.6651ZM6.96153 16.1249C6.46803 16.1249 6.06641 16.5261 6.06641 17.02C6.06641 17.5139 6.46766 17.9155 6.96153 17.9155C7.45541 17.9155 7.85666 17.5139 7.85666 17.02C7.85666 16.5261 7.45541 16.1249 6.96153 16.1249Z" fill="#365327"/>
<path d="M15.4667 22.08L15.0422 20.5961C14.8625 19.9687 14.3927 19.4505 13.7642 19.2015C13.4863 19.0927 13.1968 19.0087 12.9035 18.9514C12.3054 18.8374 11.6987 18.837 11.0998 18.9514C10.8077 19.0084 10.5182 19.0924 10.22 19.2094C9.61178 19.4501 9.14153 19.968 8.96228 20.595L8.53778 22.0792C8.50553 22.1925 8.52841 22.3144 8.59891 22.4085C8.66978 22.5022 8.78078 22.5574 8.89853 22.5574H15.1059C15.2233 22.5574 15.3343 22.5022 15.4055 22.4085C15.476 22.3144 15.4989 22.1925 15.4667 22.0792V22.08Z" fill="#365327"/>
<path d="M12.0006 15.375C11.0935 15.375 10.3555 16.113 10.3555 17.0201C10.3555 17.9273 11.0935 18.6656 12.0006 18.6656C12.9077 18.6656 13.6457 17.9273 13.6457 17.0201C13.6457 16.113 12.9077 15.375 12.0006 15.375Z" fill="#365327"/>
<path d="M20.1411 22.5593H15.1048C14.8974 22.5593 14.7298 22.3917 14.7298 22.1843C14.7298 21.9769 14.8974 21.8093 15.1048 21.8093H19.6438L19.3562 20.802C19.2384 20.3914 18.9422 20.0652 18.5439 19.9077C18.2848 19.806 18.0392 19.7344 17.7969 19.6872C17.3004 19.5919 16.7747 19.5915 16.2774 19.6872C16.0359 19.734 15.7903 19.8057 15.5481 19.9002C15.2417 20.0198 14.9991 20.2317 14.8464 20.5032C14.7448 20.6839 14.5153 20.7477 14.3361 20.6468C14.1557 20.5452 14.0912 20.3168 14.1924 20.1364C14.4298 19.7134 14.8078 19.3842 15.2571 19.209C15.5601 19.0905 15.8492 19.0058 16.1357 18.9507C16.7349 18.8359 17.3417 18.8363 17.9394 18.9507C18.2271 19.0065 18.5162 19.0909 18.8001 19.2019C19.4361 19.4539 19.8947 19.959 20.0777 20.5954L20.5018 22.0812C20.5341 22.1944 20.5112 22.3159 20.4403 22.41C20.3698 22.5038 20.2588 22.5593 20.1411 22.5593Z" fill="#365327"/>
<path d="M17.0357 18.6651C16.1286 18.6651 15.3906 17.9268 15.3906 17.0196C15.3906 16.1125 16.1286 15.3745 17.0357 15.3745C17.9429 15.3745 18.6812 16.1125 18.6812 17.0196C18.6812 17.9268 17.9429 18.6651 17.0357 18.6651ZM17.0357 16.1249C16.5422 16.1249 16.1406 16.5261 16.1406 17.02C16.1406 17.5139 16.5419 17.9155 17.0357 17.9155C17.5296 17.9155 17.9312 17.5139 17.9312 17.02C17.9312 16.5261 17.5296 16.1249 17.0357 16.1249Z" fill="#365327"/>
<path d="M5.60625 14.3356C5.54287 14.3356 5.47988 14.3195 5.42288 14.2876L3.63675 13.2853H1.875C1.66763 13.2853 1.5 13.1176 1.5 12.9103V9.09277C1.5 8.8854 1.66763 8.71777 1.875 8.71777H6.96112C7.1685 8.71777 7.33612 8.8854 7.33612 9.09277C7.33612 9.30015 7.1685 9.46777 6.96112 9.46777H2.25V12.5353H3.735C3.7995 12.5353 3.8625 12.5518 3.91838 12.5833L5.23125 13.3201V12.9103C5.23125 12.7029 5.39887 12.5353 5.60625 12.5353H6.0195C6.22687 12.5353 6.3945 12.7029 6.3945 12.9103C6.3945 13.1176 6.22687 13.2853 6.0195 13.2853H5.98125V13.9606C5.98125 14.0938 5.91075 14.2171 5.79562 14.2843C5.7375 14.3184 5.67188 14.3356 5.60625 14.3356Z" fill="#365327"/>
<path d="M6.01769 10.7939H3.32031C3.11294 10.7939 2.94531 10.6263 2.94531 10.4189C2.94531 10.2116 3.11294 10.0439 3.32031 10.0439H6.01769C6.22506 10.0439 6.39269 10.2116 6.39269 10.4189C6.39269 10.6263 6.22506 10.7939 6.01769 10.7939Z" fill="#365327"/>
<path d="M6.01769 11.96H3.32031C3.11294 11.96 2.94531 11.7923 2.94531 11.585C2.94531 11.3776 3.11294 11.21 3.32031 11.21H6.01769C6.22506 11.21 6.39269 11.3776 6.39269 11.585C6.39269 11.7923 6.22506 11.96 6.01769 11.96Z" fill="#365327"/>
<path d="M18.3947 14.3356C18.3291 14.3356 18.2634 14.3184 18.2053 14.2843C18.0902 14.2168 18.0197 14.0938 18.0197 13.9606V13.2684C17.8671 13.2208 17.7564 13.0783 17.7564 12.9103C17.7564 12.7029 17.9241 12.5353 18.1314 12.5353H18.3947C18.6021 12.5353 18.7697 12.7029 18.7697 12.9103V13.3201L20.0826 12.5833C20.1384 12.5518 20.2014 12.5353 20.2659 12.5353H21.7509V9.46777H17.0391C16.8317 9.46777 16.6641 9.30015 16.6641 9.09277C16.6641 8.8854 16.8317 8.71777 17.0391 8.71777H22.1259C22.3333 8.71777 22.5009 8.8854 22.5009 9.09277V12.9103C22.5009 13.1176 22.3333 13.2853 22.1259 13.2853H20.3642L18.5781 14.2876C18.5211 14.3195 18.4581 14.3356 18.3947 14.3356Z" fill="#365327"/>
<path d="M20.6778 10.7939H17.9805C17.7731 10.7939 17.6055 10.6263 17.6055 10.4189C17.6055 10.2116 17.7731 10.0439 17.9805 10.0439H20.6778C20.8852 10.0439 21.0528 10.2116 21.0528 10.4189C21.0528 10.6263 20.8852 10.7939 20.6778 10.7939Z" fill="#365327"/>
<path d="M20.6778 11.96H17.9805C17.7731 11.96 17.6055 11.7923 17.6055 11.585C17.6055 11.3776 17.7731 11.21 17.9805 11.21H20.6778C20.8852 11.21 21.0528 11.3776 21.0528 11.585C21.0528 11.7923 20.8852 11.96 20.6778 11.96Z" fill="#365327"/>
<path d="M17.1608 12.9646L16.5046 10.6704C16.2451 9.7614 15.5633 9.01027 14.651 8.64877C14.2313 8.48452 13.7963 8.35852 13.3565 8.27265C12.458 8.10052 11.546 8.10052 10.6463 8.27265C10.2072 8.35815 9.77222 8.48415 9.32184 8.66077C8.43984 9.0099 7.75846 9.76102 7.49934 10.6693L6.84272 12.9639C6.81009 13.0771 6.83297 13.199 6.90347 13.2928C6.97434 13.3869 7.08534 13.442 7.20309 13.442H16.8008C16.9182 13.442 17.0292 13.3869 17.1005 13.2928C17.171 13.199 17.1938 13.0771 17.1612 12.9639L17.1608 12.9646Z" fill="#365327"/>
<path d="M10.5617 10.9377C10.5538 10.8071 10.6147 10.6764 10.7318 10.6003L11.8262 9.88974C11.9625 9.80114 12.1404 9.81072 12.2664 9.91284L13.2727 10.728C13.4338 10.8584 13.4582 11.0951 13.3281 11.2555C13.1977 11.4162 12.9614 11.4414 12.8006 11.3109L12.006 10.6671L11.1397 11.229C10.9662 11.3416 10.7337 11.2925 10.621 11.1186C10.5845 11.0622 10.565 10.9999 10.5613 10.9374L10.5617 10.9377Z" fill="#F9F8F6"/>
<path d="M12.0018 7.62037C10.3143 7.62037 8.94141 6.24788 8.94141 4.56038C8.94141 2.87288 10.3143 1.5 12.0018 1.5C13.6893 1.5 15.0618 2.87288 15.0618 4.56038C15.0618 6.24788 13.6893 7.62037 12.0018 7.62037ZM12.0018 2.25C10.7279 2.25 9.69141 3.2865 9.69141 4.56038C9.69141 5.83425 10.7279 6.87037 12.0018 6.87037C13.2757 6.87037 14.3118 5.83388 14.3118 4.56038C14.3118 3.28688 13.2753 2.25 12.0018 2.25Z" fill="#365327"/>
</svg>
