<svg width="24" height="24" viewBox="0 0 24 24" fill="none" xmlns="http://www.w3.org/2000/svg">
<g style="mix-blend-mode:luminosity" opacity="0.8">
<path d="M22.1255 13.0124H12.7389C12.5315 13.0124 12.3639 12.8444 12.3639 12.6374C12.3639 12.4304 12.5315 12.2624 12.7389 12.2624H21.7505V11.0962H12.7344C12.527 11.0962 12.3594 10.9282 12.3594 10.7212C12.3594 10.5142 12.527 10.3462 12.7344 10.3462H22.1255C22.3329 10.3462 22.5005 10.5142 22.5005 10.7212V12.6374C22.5005 12.8444 22.3329 13.0124 22.1255 13.0124Z" fill="#1A2921"/>
<path d="M4.125 13.0124H1.875C1.66763 13.0124 1.5 12.8444 1.5 12.6374V10.7212C1.5 10.5142 1.66763 10.3462 1.875 10.3462H4.1265C4.33387 10.3462 4.5015 10.5142 4.5015 10.7212C4.5015 10.9282 4.33387 11.0962 4.1265 11.0962H2.25V12.2624H4.125C4.33238 12.2624 4.5 12.4304 4.5 12.6374C4.5 12.8444 4.33238 13.0124 4.125 13.0124Z" fill="#1A2921"/>
<path d="M20.2503 11.0963H15.0704C14.9437 11.0963 14.8256 11.0321 14.7562 10.9256C14.6868 10.8195 14.6759 10.6853 14.7277 10.5694L15.6217 8.55076C15.6817 8.41501 15.8163 8.32764 15.9644 8.32764H19.3567C19.5052 8.32764 19.6394 8.41501 19.6994 8.55076L20.5934 10.5694C20.6452 10.6853 20.6339 10.8195 20.5649 10.9256C20.4956 11.0321 20.3774 11.0963 20.2507 11.0963H20.2503ZM15.6464 10.3463H19.6743L19.1126 9.07764H16.2082L15.6464 10.3463Z" fill="#1A2921"/>
<path d="M22.4991 2.57625V6.79125H12.8203V2.57625C12.8203 1.98375 13.3041 1.5 13.8966 1.5H21.4228C22.0153 1.5 22.4991 1.98375 22.4991 2.57625Z" fill="#1A2921"/>
<path d="M12.8203 7.54102H22.4991V8.00227C22.4991 8.59477 22.0153 9.07852 21.4228 9.07852H13.8966C13.3041 9.07852 12.8203 8.59477 12.8203 8.00227V7.54102Z" fill="#1A2921"/>
<path d="M3 21.3748C2.79263 21.3748 2.625 21.2068 2.625 20.9998V12.6377C2.625 12.4307 2.79263 12.2627 3 12.2627C3.20737 12.2627 3.375 12.4307 3.375 12.6377V20.9998C3.375 21.2068 3.20737 21.3748 3 21.3748Z" fill="#1A2921"/>
<path d="M21.3434 21.3749H14.2383C14.0309 21.3749 13.8633 21.2069 13.8633 20.9999V12.6362C13.8633 12.4292 14.0309 12.2612 14.2383 12.2612H21.3434C21.5508 12.2612 21.7184 12.4292 21.7184 12.6362V20.9999C21.7184 21.2069 21.5508 21.3749 21.3434 21.3749ZM14.6133 20.6249H20.9684V13.0112H14.6133V20.6249Z" fill="#1A2921"/>
<path d="M21.3434 15.8003H14.2383C14.0309 15.8003 13.8633 15.6323 13.8633 15.4253C13.8633 15.2183 14.0309 15.0503 14.2383 15.0503H21.3434C21.5508 15.0503 21.7184 15.2183 21.7184 15.4253C21.7184 15.6323 21.5508 15.8003 21.3434 15.8003Z" fill="#1A2921"/>
<path d="M21.3434 18.5879H14.2383C14.0309 18.5879 13.8633 18.4199 13.8633 18.2129C13.8633 18.0059 14.0309 17.8379 14.2383 17.8379H21.3434C21.5508 17.8379 21.7184 18.0059 21.7184 18.2129C21.7184 18.4199 21.5508 18.5879 21.3434 18.5879Z" fill="#1A2921"/>
<path d="M17.9002 14.3457H17.3516C17.1442 14.3457 16.9766 14.1777 16.9766 13.9707C16.9766 13.7637 17.1442 13.5957 17.3516 13.5957H17.9002C18.1076 13.5957 18.2752 13.7637 18.2752 13.9707C18.2752 14.1777 18.1076 14.3457 17.9002 14.3457Z" fill="#1A2921"/>
<path d="M17.9002 17.1929H17.3516C17.1442 17.1929 16.9766 17.0249 16.9766 16.8179C16.9766 16.6109 17.1442 16.4429 17.3516 16.4429H17.9002C18.1076 16.4429 18.2752 16.6109 18.2752 16.8179C18.2752 17.0249 18.1076 17.1929 17.9002 17.1929Z" fill="#1A2921"/>
<path d="M17.9002 20.04H17.3516C17.1442 20.04 16.9766 19.872 16.9766 19.665C16.9766 19.458 17.1442 19.29 17.3516 19.29H17.9002C18.1076 19.29 18.2752 19.458 18.2752 19.665C18.2752 19.872 18.1076 20.04 17.9002 20.04Z" fill="#1A2921"/>
<path d="M11.5188 19.7406L8.80606 19.1931V15.8139H10.1812C11.3542 15.8139 12.3082 14.8599 12.3082 13.6869C12.3082 13.4799 12.1406 13.3119 11.9332 13.3119H8.80606V12.5833H10.0874C11.0426 12.5833 11.8196 11.8063 11.8196 10.8512V7.93782C11.8196 6.06957 10.2993 4.54932 8.43106 4.54932C6.56281 4.54932 5.04294 6.06919 5.04294 7.93782V10.8512C5.04294 11.8063 5.81994 12.5833 6.77506 12.5833H8.05606V13.3119H4.92969C4.72231 13.3119 4.55469 13.4799 4.55469 13.6869C4.55469 14.8596 5.50869 15.8139 6.68131 15.8139H8.05606V19.1934L5.34369 19.7409C5.16894 19.7762 5.04294 19.9299 5.04294 20.1084V21.0002C5.04294 21.2072 5.21056 21.3752 5.41794 21.3752C5.62531 21.3752 5.79294 21.2072 5.79294 21.0002V20.4152L8.05606 19.9581V21.0002C8.05606 21.2072 8.22369 21.3752 8.43106 21.3752C8.63844 21.3752 8.80606 21.2072 8.80606 21.0002V19.9581L11.0696 20.4152V21.0002C11.0696 21.2072 11.2372 21.3752 11.4446 21.3752C11.6519 21.3752 11.8196 21.2072 11.8196 21.0002V20.1084C11.8196 19.9299 11.6936 19.7758 11.5188 19.7406Z" fill="#7C9A82"/>
</g>
</svg>
