<svg width="24" height="24" viewBox="0 0 24 24" fill="none" xmlns="http://www.w3.org/2000/svg">
<g style="mix-blend-mode:luminosity" opacity="0.8">
<path d="M9.05325 16.6879H3C2.17275 16.6879 1.5 16.0151 1.5 15.1879V14.6816C1.5 14.4746 1.668 14.3066 1.875 14.3066H10.3481C10.5551 14.3066 10.7231 14.4746 10.7231 14.6816C10.7231 14.8886 10.5551 15.0566 10.3481 15.0566H2.25V15.1879C2.25 15.6015 2.58637 15.9379 3 15.9379H9.05325C9.26025 15.9379 9.42825 16.1059 9.42825 16.3129C9.42825 16.5199 9.26025 16.6879 9.05325 16.6879Z" fill="#1A2921"/>
<path d="M1.875 15.0565C1.668 15.0565 1.5 14.8885 1.5 14.6815V6.86279C1.5 6.03554 2.17275 5.36279 3 5.36279H13.6088C14.436 5.36279 15.1088 6.03554 15.1088 6.86279C15.1088 7.06979 14.9408 7.23779 14.7338 7.23779C14.5268 7.23779 14.3588 7.06979 14.3588 6.86279C14.3588 6.44917 14.0224 6.11279 13.6088 6.11279H3C2.58637 6.11279 2.25 6.44917 2.25 6.86279V14.6815C2.25 14.8885 2.082 15.0565 1.875 15.0565Z" fill="#1A2921"/>
<path d="M8.30438 19.3291H4.125C3.918 19.3291 3.75 19.1611 3.75 18.9541C3.75 18.7471 3.918 18.5791 4.125 18.5791H8.30438C8.51137 18.5791 8.67938 18.7471 8.67938 18.9541C8.67938 19.1611 8.51137 19.3291 8.30438 19.3291Z" fill="#1A2921"/>
<path d="M5.76621 19.3291C5.73883 19.3291 5.71146 19.3261 5.68333 19.3201C5.48121 19.2747 5.35446 19.0741 5.39983 18.872L5.99421 16.2305C6.03958 16.0283 6.24021 15.9023 6.44233 15.947C6.64446 15.9923 6.77121 16.193 6.72583 16.3951L6.13146 19.0366C6.09246 19.211 5.93796 19.3291 5.76621 19.3291Z" fill="#1A2921"/>
<path d="M6.78272 10.3089L6.64134 9.75986C6.55059 9.40774 6.33834 9.11449 6.05897 8.91311C6.18122 8.73836 6.25434 8.52649 6.25434 8.29736C6.25434 7.70299 5.77059 7.21924 5.17622 7.21924C4.58184 7.21924 4.09809 7.70299 4.09809 8.29736C4.09809 8.52649 4.17122 8.73836 4.29384 8.91349C4.01447 9.11486 3.80259 9.40811 3.71184 9.76024L3.57047 10.3092C3.54159 10.4214 3.56597 10.541 3.63722 10.6325C3.70809 10.7244 3.81759 10.778 3.93384 10.778H6.41972C6.53559 10.778 6.64509 10.7244 6.71634 10.6325C6.78722 10.541 6.81197 10.4217 6.78309 10.3092L6.78272 10.3089Z" fill="#1A2921"/>
<path d="M6.78295 14.5869L6.6412 14.0417C6.55157 13.688 6.33932 13.3937 6.05883 13.1919C6.18107 13.0172 6.2542 12.8053 6.2542 12.5762C6.2542 11.9818 5.77045 11.498 5.17608 11.498C4.5817 11.498 4.09795 11.9818 4.09795 12.5762C4.09795 12.8057 4.17108 13.0172 4.2937 13.1923C4.27833 13.2035 4.2607 13.2118 4.2457 13.2238C3.98357 13.4297 3.7942 13.7203 3.7132 14.0394L3.5707 14.5869C3.54145 14.6994 3.56583 14.819 3.63708 14.9109C3.70795 15.0028 3.81745 15.0564 3.9337 15.0564H6.41995C6.5362 15.0564 6.6457 15.0024 6.71657 14.9109C6.78745 14.819 6.8122 14.6994 6.78295 14.5869Z" fill="#1A2921"/>
<path d="M8.30469 14.9592C8.09769 14.9592 7.92969 14.7912 7.92969 14.5842V5.73682C7.92969 5.52982 8.09769 5.36182 8.30469 5.36182C8.51169 5.36182 8.67969 5.52982 8.67969 5.73682V14.5842C8.67969 14.7912 8.51169 14.9592 8.30469 14.9592Z" fill="#1A2921"/>
<path d="M8.30475 10.7773H1.875C1.668 10.7773 1.5 10.6093 1.5 10.4023C1.5 10.1953 1.668 10.0273 1.875 10.0273H8.30475C8.51175 10.0273 8.67975 10.1953 8.67975 10.4023C8.67975 10.6093 8.51175 10.7773 8.30475 10.7773Z" fill="#1A2921"/>
<path d="M21.668 17.5065C21.3747 15.8708 20.0881 14.631 18.4951 14.361C19.1135 13.6916 19.4645 12.8123 19.4645 11.8733C19.4645 9.84339 17.813 8.19189 15.7835 8.19189C13.754 8.19189 12.1021 9.84339 12.1021 11.8733C12.1021 12.8123 12.4535 13.6916 13.0715 14.361C11.9937 14.5425 11.0408 15.1684 10.4453 16.1104C10.1705 16.5401 9.98596 17.0096 9.89708 17.5069L9.07246 22.0583C9.05258 22.1678 9.08221 22.2803 9.15346 22.3654C9.22471 22.4509 9.33008 22.5 9.44146 22.5H22.124C22.235 22.5 22.3407 22.4509 22.412 22.3654C22.4832 22.2799 22.5128 22.1674 22.493 22.0583L21.668 17.5065Z" fill="#7C9A82"/>
<path d="M12.3363 21.3754C12.3142 21.3754 12.2917 21.3736 12.2692 21.3694C12.0656 21.3327 11.9302 21.1373 11.967 20.9337L12.4882 18.0537C12.525 17.8501 12.7188 17.7136 12.924 17.7514C13.1276 17.7882 13.263 17.9836 13.2262 18.1872L12.705 21.0672C12.6723 21.2483 12.5145 21.3754 12.3363 21.3754Z" fill="#1A2921"/>
<path d="M19.228 21.375C19.0499 21.375 18.892 21.2479 18.8594 21.0668L18.3382 18.1868C18.301 17.9832 18.4364 17.7878 18.6404 17.751C18.8455 17.7128 19.0394 17.8497 19.0762 18.0533L19.5974 20.9333C19.6345 21.1369 19.4992 21.3323 19.2952 21.369C19.2723 21.3732 19.2502 21.375 19.228 21.375Z" fill="#1A2921"/>
<path d="M15.7852 15.4836C15.5381 15.4836 15.2917 15.448 15.0735 15.3812C14.8755 15.3201 14.7645 15.1105 14.8252 14.9125C14.8863 14.7145 15.0956 14.6031 15.294 14.6642C15.5898 14.7553 15.9798 14.7553 16.2787 14.6642C16.4763 14.6031 16.6863 14.7156 16.7471 14.9136C16.8075 15.1116 16.6957 15.3212 16.4977 15.382C16.275 15.4498 16.0353 15.4843 15.7852 15.4843V15.4836Z" fill="#1A2921"/>
<path d="M8.77241 4.76325H7.83866C6.93903 4.76325 6.20703 4.03125 6.20703 3.13162C6.20703 2.232 6.93903 1.5 7.83866 1.5H8.77241C9.67203 1.5 10.404 2.232 10.404 3.13162C10.404 4.03125 9.67203 4.76325 8.77241 4.76325ZM7.83866 2.25C7.35266 2.25 6.95703 2.64562 6.95703 3.13162C6.95703 3.61762 7.35266 4.01325 7.83866 4.01325H8.77241C9.25841 4.01325 9.65403 3.61762 9.65403 3.13162C9.65403 2.64562 9.25841 2.25 8.77241 2.25H7.83866Z" fill="#1A2921"/>
<path d="M10.3492 6.11162H6.26544C6.11994 6.11162 5.98757 6.02762 5.92607 5.896C5.86457 5.76437 5.88407 5.60875 5.97707 5.497L7.15082 4.08437C7.28319 3.92537 7.51944 3.90325 7.67882 4.03562C7.83819 4.168 7.85994 4.40425 7.72757 4.56362L7.06457 5.36162H9.54969L8.88332 4.56062C8.75094 4.40125 8.77269 4.165 8.93169 4.03225C9.09069 3.8995 9.32732 3.92125 9.46007 4.08062L10.6376 5.49625C10.7306 5.608 10.7504 5.76362 10.6886 5.89525C10.6267 6.02687 10.4943 6.11087 10.3492 6.11087V6.11162Z" fill="#1A2921"/>
<path d="M8.41484 3.50684H8.19922C7.99222 3.50684 7.82422 3.33884 7.82422 3.13184C7.82422 2.92484 7.99222 2.75684 8.19922 2.75684H8.41484C8.62184 2.75684 8.78984 2.92484 8.78984 3.13184C8.78984 3.33884 8.62184 3.50684 8.41484 3.50684Z" fill="#1A2921"/>
<path d="M20.4958 20.25H19.0273C18.8203 20.25 18.6523 20.082 18.6523 19.875C18.6523 19.668 18.8203 19.5 19.0273 19.5H20.4958C20.7028 19.5 20.8708 19.668 20.8708 19.875C20.8708 20.082 20.7028 20.25 20.4958 20.25Z" fill="#1A2921"/>
<path d="M12.5349 20.25H11.0664C10.8594 20.25 10.6914 20.082 10.6914 19.875C10.6914 19.668 10.8594 19.5 11.0664 19.5H12.5349C12.7419 19.5 12.9099 19.668 12.9099 19.875C12.9099 20.082 12.7419 20.25 12.5349 20.25Z" fill="#1A2921"/>
</g>
</svg>
