<svg width="20" height="20" viewBox="0 0 20 20" fill="none" xmlns="http://www.w3.org/2000/svg">
<path d="M8.25781 9.77188C7.46156 9.77188 6.68531 9.59625 6.00437 9.2625L4.485 9.70031C4.38219 9.73 4.27031 9.70469 4.19 9.63281C4.11 9.56125 4.07219 9.45313 4.09031 9.34719L4.33563 7.91625C3.79344 7.20969 3.50781 6.38188 3.50781 5.5125C3.50781 3.16219 5.63875 1.25 8.25781 1.25C9.75188 1.25 11.1769 1.89031 12.07 2.9625C12.1806 3.09531 12.1625 3.29219 12.03 3.40281C11.8969 3.51281 11.7003 3.495 11.5897 3.36281C10.8141 2.43125 9.56844 1.87531 8.25781 1.87531C5.98313 1.87531 4.13281 3.50719 4.13281 5.51281C4.13281 6.2825 4.40094 7.01594 4.90875 7.63313C4.96656 7.70344 4.99063 7.795 4.97531 7.88438L4.79062 8.96219L5.94938 8.62813C6.02688 8.60594 6.10969 8.61438 6.18094 8.65156C6.79938 8.97594 7.5175 9.14719 8.25781 9.14719C8.8825 9.14719 9.47969 9.02844 10.0328 8.79375C10.2303 8.71031 10.4688 8.86688 10.4688 9.08156C10.4688 9.22094 10.3784 9.33875 10.2531 9.37938C9.62875 9.64 8.95781 9.77188 8.25781 9.77188Z" fill="#1A2921"/>
<path d="M14.6758 7.74697L14.982 9.31885L13.5602 8.9751C12.9914 9.4626 11.1008 9.72822 10.1602 9.08135C11.6633 8.44697 12.7039 7.0876 12.7039 5.5126C12.7039 4.63135 12.3789 3.81885 11.832 3.1626C13.9664 3.1626 15.2695 5.3501 14.9539 6.94697C14.8977 7.23135 14.8039 7.5001 14.6758 7.74697Z" fill="#1A2921"/>
<path d="M15.002 7.79072C15.1176 7.54385 15.2051 7.28135 15.2583 7.00635C15.4458 6.06572 15.1333 4.95635 14.4426 4.11885C13.802 3.34072 12.9301 2.89385 11.9739 2.85635C11.927 2.8501 11.8801 2.8501 11.8301 2.8501C11.7083 2.8501 11.5989 2.91885 11.5458 3.03135C11.4958 3.14072 11.5114 3.26885 11.5895 3.3626C12.1145 3.99072 12.3895 4.73447 12.3895 5.5126C12.3895 6.9001 11.4708 8.1876 10.0426 8.79072C10.0395 8.79072 10.0364 8.79072 10.0333 8.79385C9.98013 8.81885 9.93951 8.85322 9.90513 8.89697C9.87388 8.94072 9.85201 8.99385 9.84888 9.0501C9.84576 9.0876 9.84888 9.12197 9.85513 9.15947C9.86138 9.18135 9.86763 9.20322 9.87701 9.2251L9.88326 9.23135C9.90513 9.27197 9.93951 9.30947 9.98013 9.3376C9.99263 9.34697 10.0051 9.35322 10.0176 9.35947C10.0239 9.36572 10.027 9.36572 10.0333 9.36885C10.0614 9.39072 10.0958 9.40947 10.127 9.42822C10.5645 9.6751 11.127 9.77822 11.6864 9.77822C12.4458 9.77822 13.202 9.5876 13.627 9.3126L14.9083 9.62197C15.0083 9.64697 15.1208 9.61885 15.1958 9.54385C15.2739 9.47197 15.3083 9.3626 15.2864 9.25947L15.002 7.79072ZM13.3551 8.7376C12.9989 9.04385 11.7801 9.2876 10.8864 9.0626C12.1989 8.27822 13.0145 6.94385 13.0145 5.5126C13.0145 4.82197 12.8333 4.15635 12.4864 3.55635C13.0489 3.7001 13.5583 4.02822 13.9614 4.51572C14.5239 5.20322 14.7926 6.13447 14.6458 6.8876C14.5958 7.14072 14.5114 7.38135 14.3958 7.60322C14.3645 7.66572 14.3551 7.7376 14.3676 7.80635L14.5801 8.9001L13.6301 8.67197C13.5333 8.64697 13.4301 8.67197 13.3551 8.7376Z" fill="#1A2921"/>
<path d="M10.1594 9.3938H10.1563C9.98375 9.3938 9.84375 9.2538 9.84375 9.0813C9.84375 8.9088 9.98375 8.7688 10.1563 8.7688C10.3288 8.7688 10.4703 8.9088 10.4703 9.0813C10.4703 9.2538 10.3319 9.3938 10.1594 9.3938Z" fill="#1A2921"/>
<path d="M6.28906 6.14815C6.11656 6.14815 5.97656 6.00815 5.97656 5.83565V5.18628C5.97656 5.01378 6.11656 4.87378 6.28906 4.87378C6.46156 4.87378 6.60156 5.01378 6.60156 5.18628V5.83565C6.60156 6.00815 6.46156 6.14815 6.28906 6.14815Z" fill="#1A2921"/>
<path d="M8.25781 6.14815C8.08531 6.14815 7.94531 6.00815 7.94531 5.83565V5.18628C7.94531 5.01378 8.08531 4.87378 8.25781 4.87378C8.43031 4.87378 8.57031 5.01378 8.57031 5.18628V5.83565C8.57031 6.00815 8.43031 6.14815 8.25781 6.14815Z" fill="#1A2921"/>
<path d="M10.2305 6.14815C10.058 6.14815 9.91797 6.00815 9.91797 5.83565V5.18628C9.91797 5.01378 10.058 4.87378 10.2305 4.87378C10.403 4.87378 10.543 5.01378 10.543 5.18628V5.83565C10.543 6.00815 10.403 6.14815 10.2305 6.14815Z" fill="#1A2921"/>
<path d="M2.43516 17.8125C1.78391 17.8125 1.25391 17.1859 1.25391 16.4153C1.25391 14.5709 2.48391 13.0703 3.99547 13.0703H4.11109C4.28359 13.0703 4.42359 13.2103 4.42359 13.3828C4.42359 13.5553 4.28359 13.6953 4.11109 13.6953H3.99547C2.82828 13.6953 1.87891 14.9156 1.87891 16.4153C1.87891 16.8338 2.13359 17.1875 2.43516 17.1875C2.60766 17.1875 2.74766 17.3275 2.74766 17.5C2.74766 17.6725 2.60766 17.8125 2.43516 17.8125Z" fill="#1A2921"/>
<path d="M5.55908 11.0032C5.23721 10.5157 4.69658 10.2251 4.1122 10.2251H4.10596C3.40596 10.2251 2.78408 10.6188 2.52783 11.2251C2.28408 11.8032 2.33408 12.422 2.66221 12.9188C2.75908 13.0657 2.87471 13.1907 3.00596 13.297C3.31221 13.5532 3.6997 13.697 4.10908 13.697H4.11533C4.81845 13.697 5.4372 13.3032 5.69658 12.6938C5.94033 12.1157 5.89033 11.5001 5.55908 11.0032ZM5.11845 12.4501C4.9622 12.822 4.55908 13.072 4.10908 13.072C3.7372 13.072 3.39033 12.8845 3.18408 12.572C2.97158 12.2532 2.94346 11.8501 3.10283 11.4688C3.25908 11.1001 3.66221 10.8501 4.10596 10.8501H4.1122C4.4872 10.8501 4.83408 11.0345 5.04033 11.347C5.25283 11.6688 5.28095 12.0688 5.11845 12.4501Z" fill="#1A2921"/>
<path d="M8.5525 17.4999H5.01562L5.91812 14.2024H9.455L8.5525 17.4999Z" fill="#7C9A82"/>
<path d="M9.70454 14.0125C9.64516 13.9344 9.55141 13.8906 9.45454 13.8906H5.92016C5.77641 13.8906 5.65454 13.9844 5.61704 14.1187L4.77641 17.1875L4.71391 17.4188C4.68891 17.5125 4.70766 17.6125 4.76704 17.6906C4.82641 17.7656 4.92016 17.8125 5.01704 17.8125H8.55141C8.69516 17.8125 8.81704 17.7187 8.85454 17.5812L9.75766 14.2844C9.78266 14.1906 9.76391 14.0906 9.70454 14.0125ZM5.42641 17.1875L6.15766 14.5156H9.04516L8.31391 17.1875H5.42641Z" fill="#7C9A82"/>
<path d="M8.21108 15.1063C8.04546 14.8907 7.77983 14.7688 7.48608 14.7688C6.91733 14.7688 6.35796 15.2094 6.21108 15.7719C6.13296 16.075 6.18608 16.375 6.35483 16.5969C6.52358 16.8125 6.78921 16.9344 7.08296 16.9344C7.36733 16.9344 7.64858 16.825 7.87983 16.6438C8.10796 16.4625 8.28296 16.2125 8.35796 15.9313C8.43608 15.6282 8.38296 15.3282 8.21108 15.1063ZM7.75483 15.7719C7.67983 16.0594 7.36733 16.3094 7.08296 16.3094C7.01108 16.3094 6.91108 16.2938 6.85171 16.2157C6.79858 16.1469 6.78608 16.0438 6.81421 15.9313C6.88921 15.6438 7.20171 15.3938 7.48608 15.3938C7.55796 15.3938 7.65796 15.4094 7.71733 15.4875C7.77046 15.5563 7.78296 15.6563 7.75483 15.7719Z" fill="#1A2921"/>
<path d="M5.03938 17.8125H3.53906C3.36656 17.8125 3.22656 17.6725 3.22656 17.5C3.22656 17.3275 3.36656 17.1875 3.53906 17.1875H5.03938C5.21188 17.1875 5.35188 17.3275 5.35188 17.5C5.35188 17.6725 5.21188 17.8125 5.03938 17.8125Z" fill="#7C9A82"/>
<path d="M4.28781 16.1638H3.4375C3.265 16.1638 3.125 16.0238 3.125 15.8513C3.125 15.6788 3.265 15.5388 3.4375 15.5388H4.28781C4.46031 15.5388 4.60031 15.6788 4.60031 15.8513C4.60031 16.0238 4.46031 16.1638 4.28781 16.1638Z" fill="#1A2921"/>
<path d="M17.5116 17.8125C17.3391 17.8125 17.1991 17.6725 17.1991 17.5C17.1991 17.3275 17.3391 17.1875 17.5116 17.1875C17.8131 17.1875 18.0678 16.8341 18.0678 16.4153C18.0678 14.9156 17.1184 13.6953 15.9516 13.6953H15.8359C15.6634 13.6953 15.5234 13.5553 15.5234 13.3828C15.5234 13.2103 15.6634 13.0703 15.8359 13.0703H15.9516C17.4631 13.0703 18.6928 14.5709 18.6928 16.4153C18.6928 17.1856 18.1628 17.8125 17.5116 17.8125Z" fill="#1A2921"/>
<path d="M17.4171 11.2251C17.1608 10.6188 16.5421 10.2251 15.8389 10.2251H15.8327C15.2483 10.2251 14.7077 10.5157 14.3858 11.0032C14.0546 11.5001 14.0077 12.1157 14.2514 12.6938C14.5077 13.3032 15.1264 13.697 15.8358 13.697C16.2452 13.697 16.6327 13.5532 16.9389 13.297C17.0702 13.1907 17.1889 13.0657 17.2827 12.9188C17.6139 12.422 17.6608 11.8032 17.4171 11.2251ZM16.7608 12.572C16.5546 12.8813 16.2108 13.0688 15.8358 13.072H15.8296C15.3858 13.072 14.9827 12.822 14.8264 12.4501C14.6639 12.0688 14.6952 11.6688 14.9077 11.347C15.1139 11.0345 15.4608 10.8501 15.8327 10.8501H15.8389C16.2827 10.8501 16.6858 11.1001 16.8421 11.4688C17.0046 11.8501 16.9733 12.2532 16.7608 12.572Z" fill="#1A2921"/>
<path d="M11.3944 17.4999H14.9312L14.0287 14.2024H10.4922L11.3944 17.4999Z" fill="#7C9A82"/>
<path d="M15.2325 17.4188L15.17 17.1875L14.3293 14.1187C14.2918 13.9844 14.17 13.8906 14.0293 13.8906H10.4918C10.395 13.8906 10.3012 13.9344 10.245 14.0125C10.1856 14.0906 10.1637 14.1906 10.1918 14.2844L11.0918 17.5812C11.1293 17.7187 11.2543 17.8125 11.395 17.8125H14.9325C15.0293 17.8125 15.12 17.7656 15.1793 17.6906C15.2387 17.6125 15.2575 17.5125 15.2325 17.4188ZM11.6325 17.1875L10.9012 14.5156H13.7918L14.5231 17.1875H11.6325Z" fill="#7C9A82"/>
<path d="M13.7391 15.7719C13.5922 15.2094 13.0328 14.7688 12.4641 14.7688C12.1672 14.7688 11.9016 14.8907 11.7359 15.1063C11.6172 15.2625 11.5547 15.4532 11.5547 15.6594C11.5547 15.75 11.5641 15.8407 11.5891 15.9313C11.7359 16.4938 12.2953 16.9344 12.8641 16.9344C13.1609 16.9344 13.4266 16.8125 13.5922 16.5969C13.7641 16.375 13.8172 16.075 13.7391 15.7719ZM13.0984 16.2157C13.0359 16.2938 12.9359 16.3094 12.8641 16.3094C12.5828 16.3094 12.2703 16.0594 12.1953 15.7719C12.1641 15.6563 12.1766 15.5563 12.2297 15.4875C12.2922 15.4094 12.3922 15.3938 12.4641 15.3938C12.7453 15.3938 13.0578 15.6438 13.1328 15.9313C13.1641 16.0438 13.1516 16.1469 13.0984 16.2157Z" fill="#1A2921"/>
<path d="M16.4066 17.8125H14.9062C14.7338 17.8125 14.5938 17.6725 14.5938 17.5C14.5938 17.3275 14.7338 17.1875 14.9062 17.1875H16.4066C16.5791 17.1875 16.7191 17.3275 16.7191 17.5C16.7191 17.6725 16.5791 17.8125 16.4066 17.8125Z" fill="#7C9A82"/>
<path d="M16.5105 16.1638H15.6602C15.4877 16.1638 15.3477 16.0238 15.3477 15.8513C15.3477 15.6788 15.4877 15.5388 15.6602 15.5388H16.5105C16.683 15.5388 16.823 15.6788 16.823 15.8513C16.823 16.0238 16.683 16.1638 16.5105 16.1638Z" fill="#1A2921"/>
</svg>
